<svg width="1200" height="820" viewBox="0 0 1200 820" fill="none" xmlns="http://www.w3.org/2000/svg">
  <!-- Outer frame -->
  <rect width="1200" height="820" rx="44" fill="#0D1118"/>
  <rect x="34" y="34" width="1132" height="752" rx="34" fill="#121823" stroke="#2A3342"/>
  <!-- Sidebar -->
  <rect x="70" y="74" width="210" height="672" rx="24" fill="#0A0E14"/>
  <circle cx="112" cy="122" r="22" fill="#B8FF7A"/>
  <rect x="150" y="108" width="86" height="14" rx="7" fill="#F7F3EA"/>
  <rect x="92" y="186" width="146" height="14" rx="7" fill="#566174"/>
  <rect x="92" y="228" width="130" height="14" rx="7" fill="#566174"/>
  <rect x="92" y="272" width="118" height="14" rx="7" fill="#B8FF7A" fill-opacity="0.9"/>
  <rect x="82" y="264" width="4" height="30" rx="2" fill="#B8FF7A"/>
  <rect x="92" y="318" width="132" height="14" rx="7" fill="#566174"/>
  <rect x="92" y="364" width="108" height="14" rx="7" fill="#566174"/>
  <!-- Header -->
  <rect x="320" y="78" width="360" height="52" rx="16" fill="#0A0E14"/>
  <rect x="344" y="96" width="180" height="14" rx="7" fill="#F7F3EA"/>
  <rect x="344" y="116" width="120" height="9" rx="4" fill="#566174"/>
  <!-- Filter chips -->
  <rect x="700" y="84" width="100" height="38" rx="19" fill="#263041"/>
  <rect x="716" y="98" width="68" height="10" rx="5" fill="#566174"/>
  <rect x="816" y="84" width="100" height="38" rx="19" fill="#B8FF7A" fill-opacity="0.15" stroke="#B8FF7A" stroke-opacity="0.3" stroke-width="1"/>
  <rect x="832" y="98" width="68" height="10" rx="5" fill="#B8FF7A"/>
  <!-- Table header -->
  <rect x="320" y="158" width="796" height="40" rx="12" fill="#0A0E14"/>
  <rect x="344" y="174" width="100" height="8" rx="4" fill="#566174"/>
  <rect x="520" y="174" width="64" height="8" rx="4" fill="#566174"/>
  <rect x="656" y="174" width="64" height="8" rx="4" fill="#566174"/>
  <rect x="792" y="174" width="64" height="8" rx="4" fill="#566174"/>
  <rect x="944" y="174" width="64" height="8" rx="4" fill="#B8FF7A" fill-opacity="0.7"/>
  <!-- Table rows -->
  <!-- Row 1 (highlighted) -->
  <rect x="320" y="210" width="796" height="64" rx="12" fill="#141C28" stroke="#B8FF7A" stroke-opacity="0.3" stroke-width="1"/>
  <circle cx="352" cy="242" r="14" fill="#B8FF7A" fill-opacity="0.15"/>
  <circle cx="352" cy="242" r="6" fill="#B8FF7A" fill-opacity="0.4"/>
  <rect x="374" y="235" width="110" height="12" rx="6" fill="#F7F3EA"/>
  <rect x="374" y="254" width="76" height="8" rx="4" fill="#566174"/>
  <rect x="512" y="233" width="80" height="20" rx="10" fill="#B8FF7A" fill-opacity="0.12"/>
  <rect x="524" y="238" width="56" height="10" rx="5" fill="#B8FF7A"/>
  <rect x="648" y="233" width="80" height="20" rx="10" fill="#8BD3FF" fill-opacity="0.12"/>
  <rect x="660" y="238" width="56" height="10" rx="5" fill="#8BD3FF"/>
  <rect x="784" y="233" width="80" height="20" rx="10" fill="#F5C76B" fill-opacity="0.12"/>
  <rect x="796" y="238" width="56" height="10" rx="5" fill="#F5C76B"/>
  <rect x="936" y="229" width="96" height="28" rx="14" fill="#B8FF7A"/>
  <rect x="950" y="238" width="68" height="10" rx="5" fill="#071009"/>
  <!-- Row 2 -->
  <rect x="320" y="286" width="796" height="64" rx="12" fill="#141C28"/>
  <circle cx="352" cy="318" r="14" fill="#566174" fill-opacity="0.15"/>
  <circle cx="352" cy="318" r="6" fill="#566174" fill-opacity="0.4"/>
  <rect x="374" y="311" width="96" height="12" rx="6" fill="#F7F3EA"/>
  <rect x="374" y="330" width="68" height="8" rx="4" fill="#566174"/>
  <rect x="512" y="309" width="80" height="20" rx="10" fill="#1A2332"/>
  <rect x="524" y="314" width="56" height="10" rx="5" fill="#566174"/>
  <rect x="648" y="309" width="80" height="20" rx="10" fill="#1A2332"/>
  <rect x="660" y="314" width="56" height="10" rx="5" fill="#566174"/>
  <rect x="784" y="309" width="80" height="20" rx="10" fill="#1A2332"/>
  <rect x="796" y="314" width="56" height="10" rx="5" fill="#566174"/>
  <rect x="936" y="305" width="96" height="28" rx="14" fill="#263041"/>
  <rect x="950" y="314" width="68" height="10" rx="5" fill="#566174"/>
  <!-- Row 3 -->
  <rect x="320" y="362" width="796" height="64" rx="12" fill="#141C28"/>
  <circle cx="352" cy="394" r="14" fill="#566174" fill-opacity="0.15"/>
  <circle cx="352" cy="394" r="6" fill="#566174" fill-opacity="0.4"/>
  <rect x="374" y="387" width="116" height="12" rx="6" fill="#F7F3EA"/>
  <rect x="374" y="406" width="80" height="8" rx="4" fill="#566174"/>
  <rect x="512" y="385" width="80" height="20" rx="10" fill="#1A2332"/>
  <rect x="524" y="390" width="56" height="10" rx="5" fill="#566174"/>
  <rect x="648" y="385" width="80" height="20" rx="10" fill="#1A2332"/>
  <rect x="660" y="390" width="56" height="10" rx="5" fill="#566174"/>
  <rect x="784" y="385" width="80" height="20" rx="10" fill="#1A2332"/>
  <rect x="796" y="390" width="56" height="10" rx="5" fill="#566174"/>
  <rect x="936" y="381" width="96" height="28" rx="14" fill="#263041"/>
  <rect x="950" y="390" width="68" height="10" rx="5" fill="#566174"/>
  <!-- Row 4 -->
  <rect x="320" y="438" width="796" height="64" rx="12" fill="#141C28"/>
  <circle cx="352" cy="470" r="14" fill="#566174" fill-opacity="0.15"/>
  <circle cx="352" cy="470" r="6" fill="#566174" fill-opacity="0.4"/>
  <rect x="374" y="463" width="104" height="12" rx="6" fill="#F7F3EA"/>
  <rect x="374" y="482" width="72" height="8" rx="4" fill="#566174"/>
  <rect x="512" y="461" width="80" height="20" rx="10" fill="#1A2332"/>
  <rect x="524" y="466" width="56" height="10" rx="5" fill="#566174"/>
  <rect x="648" y="461" width="80" height="20" rx="10" fill="#1A2332"/>
  <rect x="660" y="466" width="56" height="10" rx="5" fill="#566174"/>
  <rect x="784" y="461" width="80" height="20" rx="10" fill="#1A2332"/>
  <rect x="796" y="466" width="56" height="10" rx="5" fill="#566174"/>
  <rect x="936" y="457" width="96" height="28" rx="14" fill="#263041"/>
  <rect x="950" y="466" width="68" height="10" rx="5" fill="#566174"/>
  <!-- Row 5 -->
  <rect x="320" y="514" width="796" height="64" rx="12" fill="#141C28"/>
  <circle cx="352" cy="546" r="14" fill="#566174" fill-opacity="0.15"/>
  <circle cx="352" cy="546" r="6" fill="#566174" fill-opacity="0.4"/>
  <rect x="374" y="539" width="88" height="12" rx="6" fill="#F7F3EA"/>
  <rect x="374" y="558" width="64" height="8" rx="4" fill="#566174"/>
  <rect x="512" y="537" width="80" height="20" rx="10" fill="#1A2332"/>
  <rect x="524" y="542" width="56" height="10" rx="5" fill="#566174"/>
  <rect x="648" y="537" width="80" height="20" rx="10" fill="#1A2332"/>
  <rect x="660" y="542" width="56" height="10" rx="5" fill="#566174"/>
  <rect x="784" y="537" width="80" height="20" rx="10" fill="#1A2332"/>
  <rect x="796" y="542" width="56" height="10" rx="5" fill="#566174"/>
  <rect x="936" y="533" width="96" height="28" rx="14" fill="#263041"/>
  <rect x="950" y="542" width="68" height="10" rx="5" fill="#566174"/>
  <!-- Bottom stats -->
  <rect x="320" y="616" width="232" height="72" rx="18" fill="#0A0E14"/>
  <rect x="344" y="634" width="80" height="8" rx="4" fill="#566174"/>
  <rect x="344" y="650" width="56" height="20" rx="8" fill="#B8FF7A" fill-opacity="0.12"/>
  <rect x="352" y="656" width="40" height="8" rx="4" fill="#B8FF7A"/>
  <rect x="574" y="616" width="232" height="72" rx="18" fill="#0A0E14"/>
  <rect x="598" y="634" width="80" height="8" rx="4" fill="#566174"/>
  <rect x="598" y="650" width="56" height="20" rx="8" fill="#566174" fill-opacity="0.2"/>
  <rect x="606" y="656" width="40" height="8" rx="4" fill="#566174"/>
</svg>
