<svg width="260" height="330" viewBox="0 0 260 330" fill="none" xmlns="http://www.w3.org/2000/svg">
  <!-- Card -->
  <rect width="260" height="330" rx="20" fill="#141C28" stroke="#2A3342"/>
  <!-- Avatar + name -->
  <circle cx="36" cy="44" r="20" fill="#B8FF7A" fill-opacity="0.12"/>
  <circle cx="36" cy="44" r="12" fill="#B8FF7A" fill-opacity="0.22"/>
  <circle cx="36" cy="44" r="5" fill="#B8FF7A"/>
  <rect x="64" y="32" width="108" height="12" rx="6" fill="#F7F3EA"/>
  <rect x="64" y="52" width="76" height="9" rx="4" fill="#566174"/>
  <!-- Badge -->
  <rect x="64" y="66" width="58" height="16" rx="8" fill="#263041"/>
  <rect x="72" y="71" width="42" height="5" rx="2" fill="#8BD3FF" fill-opacity="0.8"/>
  <!-- Separator -->
  <rect x="0" y="94" width="260" height="1" fill="#2A3342"/>
  <!-- Judge 1 -->
  <rect x="20" y="108" width="58" height="8" rx="4" fill="#566174"/>
  <rect x="20" y="124" width="148" height="6" rx="3" fill="#1A2332"/>
  <rect x="20" y="124" width="126" height="6" rx="3" fill="#B8FF7A" fill-opacity="0.6"/>
  <rect x="182" y="116" width="58" height="18" rx="9" fill="#0A0E14"/>
  <rect x="192" y="122" width="38" height="6" rx="3" fill="#B8FF7A"/>
  <!-- Judge 2 -->
  <rect x="20" y="156" width="58" height="8" rx="4" fill="#566174"/>
  <rect x="20" y="172" width="148" height="6" rx="3" fill="#1A2332"/>
  <rect x="20" y="172" width="133" height="6" rx="3" fill="#8BD3FF" fill-opacity="0.6"/>
  <rect x="182" y="164" width="58" height="18" rx="9" fill="#0A0E14"/>
  <rect x="192" y="170" width="38" height="6" rx="3" fill="#8BD3FF"/>
  <!-- Judge 3 -->
  <rect x="20" y="204" width="58" height="8" rx="4" fill="#566174"/>
  <rect x="20" y="220" width="148" height="6" rx="3" fill="#1A2332"/>
  <rect x="20" y="220" width="118" height="6" rx="3" fill="#F5C76B" fill-opacity="0.6"/>
  <rect x="182" y="212" width="58" height="18" rx="9" fill="#0A0E14"/>
  <rect x="192" y="218" width="38" height="6" rx="3" fill="#F5C76B"/>
  <!-- Separator -->
  <rect x="0" y="252" width="260" height="1" fill="#2A3342"/>
  <!-- Average footer -->
  <rect x="0" y="252" width="260" height="78" fill="#B8FF7A" fill-opacity="0.05"/>
  <rect x="20" y="268" width="50" height="7" rx="3" fill="#566174"/>
  <rect x="20" y="281" width="82" height="26" rx="12" fill="#B8FF7A" fill-opacity="0.12"/>
  <rect x="30" y="288" width="62" height="12" rx="6" fill="#B8FF7A"/>
  <rect x="120" y="278" width="48" height="9" rx="4" fill="#566174"/>
  <rect x="120" y="293" width="36" height="9" rx="4" fill="#566174"/>
</svg>
