<svg width="248" height="48" viewBox="0 0 248 48" fill="none" xmlns="http://www.w3.org/2000/svg">
  <rect width="48" height="48" rx="24" fill="url(#paint0_linear_1_2)"/>
  <path d="M17.28 30.56C14.12 30.56 11.76 28.24 11.76 24.04C11.76 19.84 14.16 17.44 17.34 17.44C19.48 17.44 21.02 18.48 21.94 20.12L19.84 21.38C19.3 20.42 18.52 19.82 17.34 19.82C15.58 19.82 14.48 21.32 14.48 24.02C14.48 26.72 15.58 28.18 17.38 28.18C18.52 28.18 19.44 27.58 20.02 26.48L22.1 27.7C21.14 29.54 19.52 30.56 17.28 30.56Z" fill="#071009"/>
  <path d="M24.19 30.32V17.68H27.47L30.01 24.48C30.21 25.04 30.43 25.82 30.49 26.12H30.57C30.63 25.82 30.85 25.04 31.05 24.48L33.59 17.68H36.81V30.32H34.31V23.02C34.31 22.28 34.37 21.26 34.43 20.82H34.35C34.25 21.22 33.93 22.24 33.69 22.88L30.93 30.32H29.87L27.11 22.88C26.87 22.24 26.55 21.22 26.45 20.82H26.37C26.43 21.26 26.49 22.28 26.49 23.02V30.32H24.19Z" fill="#071009"/>
  <path d="M65.976 31.336C61.8 31.336 58.728 28.288 58.728 24.016C58.728 19.744 61.848 16.664 65.976 16.664C68.64 16.664 70.68 17.888 71.904 19.928L69.528 21.344C68.784 20.048 67.656 19.304 66 19.304C63.312 19.304 61.704 21.272 61.704 24.016C61.704 26.76 63.312 28.696 66.024 28.696C67.728 28.696 68.952 27.856 69.696 26.392L72.048 27.784C70.824 30.112 68.616 31.336 65.976 31.336ZM78.992 31.336C75.752 31.336 73.424 29.08 73.424 25.672C73.424 22.264 75.752 20.032 78.992 20.032C82.232 20.032 84.56 22.264 84.56 25.672C84.56 29.08 82.232 31.336 78.992 31.336ZM78.992 28.96C80.768 28.96 81.824 27.712 81.824 25.672C81.824 23.632 80.768 22.408 78.992 22.408C77.216 22.408 76.16 23.632 76.16 25.672C76.16 27.712 77.216 28.96 78.992 28.96ZM87.014 31V20.368H89.582V21.976H89.678C90.35 20.824 91.502 20.032 93.086 20.032C95.39 20.032 96.95 21.616 96.95 24.112V31H94.238V24.616C94.238 23.2 93.47 22.432 92.174 22.432C90.734 22.432 89.726 23.416 89.726 25.024V31H87.014ZM104.293 31.336C101.461 31.336 99.853 29.992 99.709 27.832H102.253C102.373 28.792 103.045 29.344 104.317 29.344C105.493 29.344 106.165 28.888 106.165 28.144C106.165 27.376 105.541 27.112 103.813 26.776C101.221 26.296 99.997 25.528 99.997 23.416C99.997 21.4 101.773 20.032 104.221 20.032C106.861 20.032 108.469 21.376 108.613 23.464H106.069C105.949 22.552 105.301 22.024 104.173 22.024C103.117 22.024 102.493 22.456 102.493 23.176C102.493 23.896 103.069 24.136 104.797 24.448C107.389 24.928 108.733 25.672 108.733 27.928C108.733 30.016 106.933 31.336 104.293 31.336ZM115.579 31.336C112.363 31.336 110.179 29.128 110.179 25.696C110.179 22.288 112.387 20.032 115.507 20.032C118.675 20.032 120.667 22.144 120.667 25.384V26.32H112.867C113.035 28.072 114.043 29.032 115.675 29.032C116.947 29.032 117.763 28.504 118.267 27.568L120.451 28.84C119.515 30.448 117.907 31.336 115.579 31.336ZM112.891 24.52H117.979C117.835 23.032 116.923 22.216 115.483 22.216C114.043 22.216 113.107 23.056 112.891 24.52ZM123.116 31V20.368H125.684V22.264H125.78C126.308 20.992 127.34 20.2 128.732 20.2C129.164 20.2 129.524 20.272 129.764 20.368V22.84C129.404 22.744 129.02 22.696 128.54 22.696C126.86 22.696 125.828 23.752 125.828 25.552V31H123.116ZM135.666 31.336C132.474 31.336 130.314 29.104 130.314 25.696C130.314 22.264 132.498 20.032 135.69 20.032C138.282 20.032 140.13 21.52 140.61 23.944L137.946 24.4C137.706 23.176 136.914 22.408 135.69 22.408C134.034 22.408 133.05 23.632 133.05 25.672C133.05 27.736 134.034 28.96 135.69 28.96C136.986 28.96 137.802 28.144 138.042 26.824L140.706 27.28C140.202 29.824 138.33 31.336 135.666 31.336ZM143.061 31V16.4H145.773V31H143.061ZM153.458 31.336C150.218 31.336 147.89 29.08 147.89 25.672C147.89 22.264 150.218 20.032 153.458 20.032C156.698 20.032 159.026 22.264 159.026 25.672C159.026 29.08 156.698 31.336 153.458 31.336ZM153.458 28.96C155.234 28.96 156.29 27.712 156.29 25.672C156.29 23.632 155.234 22.408 153.458 22.408C151.682 22.408 150.626 23.632 150.626 25.672C150.626 27.712 151.682 28.96 153.458 28.96ZM166.449 31.336C163.233 31.336 161.049 29.128 161.049 25.696C161.049 22.288 163.257 20.032 166.377 20.032C169.545 20.032 171.537 22.144 171.537 25.384V26.32H163.737C163.905 28.072 164.913 29.032 166.545 29.032C167.817 29.032 168.633 28.504 169.137 27.568L171.321 28.84C170.385 30.448 168.777 31.336 166.449 31.336ZM163.761 24.52H168.849C168.705 23.032 167.793 22.216 166.353 22.216C164.913 22.216 163.977 23.056 163.761 24.52ZM173.986 31V20.368H176.554V21.976H176.65C177.322 20.824 178.474 20.032 180.058 20.032C182.362 20.032 183.922 21.616 183.922 24.112V31H181.21V24.616C181.21 23.2 180.442 22.432 179.146 22.432C177.706 22.432 176.698 23.416 176.698 25.024V31H173.986Z" fill="#F7F3EA"/>
  <defs>
    <linearGradient id="paint0_linear_1_2" x1="6" y1="6" x2="42" y2="42" gradientUnits="userSpaceOnUse">
      <stop stop-color="#B8FF7A"/>
      <stop offset="1" stop-color="#8BD3FF"/>
    </linearGradient>
  </defs>
</svg>
